<mxfile host="app.diagrams.net" modified="2024-04-24T04:00:29.843Z" agent="Mozilla/5.0 (Windows NT 10.0; Win64; x64; rv:125.0) Gecko/20100101 Firefox/125.0" version="24.2.8" etag="7KbJNZ-UMVcqjbjGdICm" type="github">
  <diagram name="Page-1" id="2r7OjBk5q9M_aKI6bpPj">
    <mxGraphModel>
      <root>
        <mxCell id="0" />
        <mxCell id="1" parent="0" />
      </root>
    </mxGraphModel>
  </diagram>
</mxfile>
